<svg width="554" height="302" viewBox="0 0 554 302" fill="none" xmlns="http://www.w3.org/2000/svg">
<path d="M184.025 82.706L184.111 82.6406C186.143 81.101 186.377 78.248 184.621 76.428L168.216 59.4262C166.552 57.7017 163.626 57.4989 161.68 58.9737L161.608 59.0277C159.663 60.5025 159.434 63.0953 161.098 64.8198L177.92 82.254C179.514 83.906 182.182 84.1036 184.025 82.706Z" fill="black"/>
<path d="M205.755 63.2444C207.082 65.1082 209.706 65.6708 211.747 64.5291L211.919 64.4331C214.149 63.1856 214.809 60.4084 213.359 58.3715L199.898 39.4697C198.532 37.551 195.67 36.9771 193.504 38.1879L193.425 38.2321C191.26 39.4429 190.613 41.9798 191.979 43.8986L205.755 63.2444Z" fill="black"/>
<path d="M236.401 47.9775C237.426 50.0266 239.961 50.9533 242.168 50.0858L242.427 49.9843C244.8 49.0514 245.867 46.419 244.764 44.2152L234.531 23.7705C233.493 21.6965 230.754 20.7609 228.414 21.681L228.327 21.7148C225.987 22.6349 224.931 25.0618 225.969 27.1358L236.401 47.9775Z" fill="black"/>
<path d="M269.221 36.7922C269.914 38.9899 272.314 40.2728 274.651 39.6937L274.982 39.6118C277.441 39.0027 278.877 36.5768 278.148 34.2638L271.345 12.6873C270.656 10.5023 268.099 9.22608 265.633 9.83619L265.542 9.85876C263.076 10.4693 261.636 12.7357 262.325 14.9208L269.221 36.7922Z" fill="black"/>
<path d="M303.532 29.9107C303.867 32.2138 306.083 33.8361 308.513 33.5581L308.892 33.5149C311.382 33.2298 313.144 31.0598 312.8 28.6989L309.554 6.41675C309.226 4.16634 306.902 2.5778 304.363 2.86851L304.269 2.8793C301.73 3.16954 299.937 5.22947 300.265 7.47941L303.532 29.9107Z" fill="black"/>
<path d="M343.05 30.9018L343.442 30.907C345.915 30.9404 347.951 29.0644 347.991 26.7138L348.376 4.17159C348.414 1.9033 346.371 0.0362554 343.811 0.00191592L343.716 0.000480359C341.156 -0.0338591 339.049 1.77724 339.011 4.046L338.626 26.5699C338.587 28.928 340.568 30.8689 343.05 30.9018Z" fill="black"/>
<path d="M377.53 34.4425L377.9 34.4953C380.313 34.8377 382.572 33.2853 382.985 31.0006L387.024 8.65122C387.429 6.41068 385.708 4.30379 383.18 3.94534L383.087 3.93213C380.559 3.57321 378.182 5.09876 377.777 7.33883L373.771 29.5057C373.344 31.8614 375.041 34.0893 377.53 34.4425Z" fill="black"/>
<path d="M411.212 41.4563L411.529 41.5443C413.842 42.1854 416.274 40.977 417.04 38.8074L424.696 17.1161C425.461 14.9509 424.1 12.6464 421.656 11.969L421.566 11.944C419.123 11.2667 416.523 12.4733 415.758 14.6385L408.215 36.0095C407.405 38.3036 408.766 40.778 411.212 41.4563Z" fill="black"/>
<path d="M443.394 52.7131L443.635 52.8161C445.81 53.7428 448.367 52.8932 449.46 50.8804L460.621 30.3166C461.731 28.2722 460.76 25.8172 458.453 24.8341L458.367 24.7974C456.06 23.8138 453.29 24.6741 452.18 26.719L441.243 46.8711C440.063 49.0439 441.045 51.7125 443.394 52.7131Z" fill="black"/>
<path d="M473.372 67.9847L473.525 68.0764C475.527 69.2741 478.163 68.7891 479.551 66.9682L494.002 47.9944C495.435 46.1138 494.875 43.5604 492.753 42.2912L492.675 42.2447C490.553 40.975 487.672 41.4708 486.24 43.351L472.128 61.8789C470.608 63.8739 471.179 66.6728 473.372 67.9847Z" fill="black"/>
<path d="M523.832 63.9364L523.762 63.8804C521.868 62.3545 518.936 62.4782 517.214 64.1571L500.23 80.7138C498.415 82.483 498.558 85.3421 500.541 86.9396L500.61 86.9956C502.409 88.4445 505.08 88.3236 506.726 86.7195L524.144 69.7393C525.866 68.0604 525.726 65.4624 523.832 63.9364Z" fill="black"/>
<path d="M435.368 68.5172C465.894 80.9594 493.279 99.2379 516.763 122.844L518.47 124.559C519.792 125.888 520.535 127.691 520.535 129.57C520.535 131.45 519.792 133.253 518.47 134.581C517.341 135.716 516.022 136.879 514.423 136.813C512.31 136.725 509.226 135.153 503.45 129.57C482.066 108.902 457.401 92.7913 430.07 81.6506C402.281 70.3233 372.915 64.58 342.787 64.58C312.66 64.58 283.293 70.3233 255.504 81.6506C228.174 92.7913 203.508 108.902 182.124 129.57C177.291 135.004 173.811 137.233 171.076 137.066C169.478 136.968 168.251 135.734 167.12 134.598L167.104 134.581C164.351 131.814 164.351 127.327 167.104 124.56L168.811 122.844C192.296 99.2379 219.68 80.9594 250.206 68.5172C279.686 56.5006 310.835 50.4077 342.787 50.4077C374.739 50.4077 405.888 56.5001 435.368 68.5172Z" fill="black"/>
<path d="M108.653 291.452H106V294.471H114.963V291.452H112.31V273.374H114.963V270.355H106V273.374H108.653V291.452Z" fill="#808080"/>
<path d="M123.441 277.707H117.096V280.619H120.071V291.558H117.167V294.471H126.346V291.558H123.441V282.573C125.162 281.223 126.955 280.442 128.317 280.442C129.68 280.442 130.289 281.365 130.289 283.496V294.471H136.564V291.558H133.659V282.182C133.659 278.879 131.616 277.423 129.214 277.423C127.421 277.423 125.7 278.098 123.441 279.731V277.707Z" fill="#808080"/>
<path d="M149.479 291.452H146.503V294.471H155.108V291.452H152.491V273.374H152.562L160.773 294.719H161.49L169.772 273.339H169.843V291.452H167.226V294.471H176.154V291.452H173.214V273.374H176.154V270.355H167.656L161.239 286.87L154.893 270.355H146.503V273.374H149.479V291.452Z" fill="#808080"/>
<path d="M196.231 286.906C196.231 280.761 191.893 277.21 187.196 277.21C182.786 277.21 178.305 280.655 178.305 286.089C178.305 291.274 182.248 294.968 187.734 294.968C191.355 294.968 194.403 293.405 196.231 290.599L193.291 289.321C192.036 291.097 189.993 292.055 187.806 292.055C184.651 292.055 182.499 290.173 181.998 286.906H196.231ZM182.105 284.491C182.607 281.685 184.615 279.873 187.268 279.873C189.921 279.873 192.287 281.827 192.825 284.491H182.105Z" fill="#808080"/>
<path d="M201.653 291.558H198.57V294.471H207.928V291.558H205.024V282.537C207.067 281.117 208.573 280.477 209.792 280.477C210.868 280.477 211.871 281.081 211.871 282.857V294.471H218.146V291.558H215.242V282.537C216.927 281.152 218.683 280.335 220.046 280.335C221.337 280.335 222.089 281.152 222.089 282.786V294.471H228.364V291.558H225.46V282.04C225.46 279.128 223.739 277.423 220.942 277.423C219.006 277.423 217.285 278.169 214.847 280.051C214.13 278.346 212.66 277.423 210.76 277.423C208.896 277.423 206.995 278.24 205.024 279.802V277.707H198.821V280.619H201.653V291.558Z" fill="#808080"/>
<path d="M229.95 286.089C229.95 291.168 233.75 294.968 238.841 294.968C243.932 294.968 247.768 291.168 247.768 286.089C247.768 281.01 243.968 277.21 238.877 277.21C233.75 277.21 229.95 281.01 229.95 286.089ZM233.535 286.089C233.535 282.857 235.829 280.406 238.841 280.406C241.888 280.406 244.183 282.857 244.183 286.089C244.183 289.356 241.888 291.771 238.841 291.771C235.829 291.771 233.535 289.356 233.535 286.089Z" fill="#808080"/>
<path d="M253.334 291.558H250V294.471H260.361V291.558H256.704V286.764C256.704 282.928 257.887 280.761 261.795 280.761H263.588V277.423H261.401C259.286 277.423 257.135 278.666 256.059 281.472H255.987V277.707H249.928V280.619H253.334V291.558Z" fill="#808080"/>
<path d="M273.291 294.151L271.248 299.088H267.913V302H273.578L281.968 280.619H284.477V277.707H276.267V280.619H278.526L274.94 289.889L271.283 280.619H273.291V277.707H264.902V280.619H267.734L273.291 294.151Z" fill="#808080"/>
<path d="M300.052 294.719H303.422L308.835 275.647H308.907L314.357 294.719H317.834L323.894 273.374H326.762V270.355H317.834V273.374H320.739L316.257 289.143H316.185L311.74 273.374H314.608V270.355H303.422V273.374H306.326L301.952 289.143H301.88L297.327 273.374H300.231V270.355H290.909V273.374H293.849L300.052 294.719Z" fill="#808080"/>
<path d="M342.758 286.906C342.758 280.761 338.419 277.21 333.723 277.21C329.313 277.21 324.831 280.655 324.831 286.089C324.831 291.274 328.775 294.968 334.261 294.968C337.882 294.968 340.929 293.405 342.758 290.599L339.818 289.321C338.563 291.097 336.519 292.055 334.332 292.055C331.177 292.055 329.026 290.173 328.524 286.906H342.758ZM328.632 284.491C329.134 281.685 331.141 279.873 333.794 279.873C336.448 279.873 338.814 281.827 339.352 284.491H328.632Z" fill="#808080"/>
<path d="M356.785 291.452H353.558V294.471H371.413V283.248H368.042V291.452H360.442V273.374H363.525V270.355H353.558V273.374H356.785V291.452Z" fill="#808080"/>
<path d="M375.302 291.558H372.613V294.471H381.361V291.558H378.672V277.707H372.613V280.619H375.302V291.558ZM376.915 270C375.804 270 374.908 270.888 374.908 271.989C374.908 273.09 375.804 273.978 376.915 273.978C378.027 273.978 378.923 273.09 378.923 271.989C378.923 270.888 378.027 270 376.915 270Z" fill="#808080"/>
<path d="M389.982 294.755H392.958L398.408 280.619H401.025V277.707H392.707V280.619H395.073L391.416 290.138L387.759 280.619H389.982V277.707H381.449V280.619H384.425L389.982 294.755Z" fill="#808080"/>
<path d="M419.26 286.906C419.26 280.761 414.921 277.21 410.225 277.21C405.815 277.21 401.333 280.655 401.333 286.089C401.333 291.274 405.277 294.968 410.763 294.968C414.384 294.968 417.431 293.405 419.26 290.599L416.32 289.321C415.065 291.097 413.021 292.055 410.834 292.055C407.679 292.055 405.528 290.173 405.026 286.906H419.26ZM405.134 284.491C405.636 281.685 407.643 279.873 410.296 279.873C412.95 279.873 415.316 281.827 415.854 284.491H405.134Z" fill="#808080"/>
<path d="M433.287 291.452H430.203V294.471H440.099V291.452H436.944V283.532H444.831V280.513H436.944V273.374H446.086V277.6H449.098V270.355H430.203V273.374H433.287V291.452Z" fill="#808080"/>
<path d="M447.831 286.089C447.831 291.168 451.632 294.968 456.723 294.968C461.814 294.968 465.65 291.168 465.65 286.089C465.65 281.01 461.85 277.21 456.759 277.21C451.632 277.21 447.831 281.01 447.831 286.089ZM451.417 286.089C451.417 282.857 453.711 280.406 456.723 280.406C459.77 280.406 462.065 282.857 462.065 286.089C462.065 289.356 459.77 291.771 456.723 291.771C453.711 291.771 451.417 289.356 451.417 286.089Z" fill="#808080"/>
<path d="M471.216 291.558H467.882V294.471H478.243V291.558H474.586V286.764C474.586 282.928 475.769 280.761 479.677 280.761H481.47V277.423H479.283C477.167 277.423 475.016 278.666 473.941 281.472H473.869V277.707H467.81V280.619H471.216V291.558Z" fill="#808080"/>
<path d="M499.403 286.906C499.403 280.761 495.065 277.21 490.368 277.21C485.958 277.21 481.477 280.655 481.477 286.089C481.477 291.274 485.42 294.968 490.906 294.968C494.527 294.968 497.574 293.405 499.403 290.599L496.463 289.321C495.208 291.097 493.164 292.055 490.977 292.055C487.822 292.055 485.671 290.173 485.169 286.906H499.403ZM485.277 284.491C485.779 281.685 487.787 279.873 490.44 279.873C493.093 279.873 495.459 281.827 495.997 284.491H485.277Z" fill="#808080"/>
<path d="M507.939 294.755H510.915L516.364 280.619H518.981V277.707H510.664V280.619H513.03L509.373 290.138L505.716 280.619H507.939V277.707H499.406V280.619H502.382L507.939 294.755Z" fill="#808080"/>
<path d="M537.216 286.906C537.216 280.761 532.878 277.21 528.181 277.21C523.771 277.21 519.29 280.655 519.29 286.089C519.29 291.274 523.234 294.968 528.719 294.968C532.34 294.968 535.388 293.405 537.216 290.599L534.276 289.321C533.021 291.097 530.978 292.055 528.791 292.055C525.636 292.055 523.485 290.173 522.983 286.906H537.216ZM523.09 284.491C523.592 281.685 525.6 279.873 528.253 279.873C530.906 279.873 533.272 281.827 533.81 284.491H523.09Z" fill="#808080"/>
<path d="M542.746 291.558H539.412V294.471H549.773V291.558H546.116V286.764C546.116 282.928 547.299 280.761 551.207 280.761H553V277.423H550.813C548.698 277.423 546.547 278.666 545.471 281.472H545.399V277.707H539.34V280.619H542.746V291.558Z" fill="#808080"/>
<path d="M152.312 167.2C169.246 167.2 177.712 173.933 177.712 187.4C177.712 195.8 173.712 202.2 165.712 206.6C157.846 210.867 146.579 213.067 131.912 213.2C131.646 218 131.512 221.8 131.512 224.6C131.512 230.6 132.846 235.067 135.512 238C138.312 240.8 141.779 242.2 145.912 242.2C150.046 242.2 153.779 241.4 157.112 239.8C160.579 238.2 163.312 236.333 165.312 234.2C167.312 231.933 169.046 229.6 170.512 227.2C173.179 222.8 174.512 220 174.512 218.8L178.112 220.4C177.712 222.533 176.512 225.4 174.512 229C172.512 232.467 170.312 235.333 167.912 237.6C165.512 239.867 161.979 242 157.312 244C152.646 245.867 147.446 246.8 141.712 246.8C130.912 246.8 122.712 244.267 117.112 239.2C111.646 234 108.912 226.933 108.912 218C108.912 202.133 112.846 189.733 120.712 180.8C128.579 171.733 139.112 167.2 152.312 167.2ZM172.712 187.4C172.712 183 171.379 179.4 168.712 176.6C166.179 173.667 162.312 172.2 157.112 172.2C152.046 172.2 147.046 175.267 142.112 181.4C137.312 187.533 134.112 196.6 132.512 208.6C159.312 208.467 172.712 201.4 172.712 187.4Z" fill="black"/>
<path d="M236.805 203.2C234.005 200.4 232.605 197 232.605 193C232.605 189 234.005 185.6 236.805 182.8C239.605 179.867 243.005 178.4 247.005 178.4C248.205 178.4 249.738 178.667 251.605 179.2C249.071 174.533 244.338 172.2 237.405 172.2C230.471 172.2 224.338 176.6 219.005 185.4C213.671 194.2 211.005 207.267 211.005 224.6C211.005 230.6 212.338 235.067 215.005 238C217.805 240.8 221.271 242.2 225.405 242.2C229.538 242.2 233.271 241.4 236.605 239.8C240.071 238.2 242.805 236.333 244.805 234.2C246.805 231.933 248.538 229.6 250.005 227.2C252.671 222.8 254.005 220 254.005 218.8L257.605 220.4C257.205 222.533 256.005 225.4 254.005 229C252.005 232.467 249.805 235.333 247.405 237.6C245.005 239.867 241.471 242 236.805 244C232.138 245.867 226.938 246.8 221.205 246.8C210.405 246.8 202.205 244.267 196.605 239.2C191.138 234 188.405 226.933 188.405 218C188.405 202.133 192.338 189.733 200.205 180.8C208.205 171.733 219.005 167.2 232.605 167.2C241.805 167.2 248.871 169.533 253.805 174.2C258.738 178.867 261.205 185 261.205 192.6C261.205 197.4 259.738 201.067 256.805 203.6C254.005 206.133 250.671 207.4 246.805 207.4C242.938 207.4 239.605 206 236.805 203.2Z" fill="black"/>
<path d="M344.659 242.8C347.859 242.8 351.193 240.933 354.659 237.2L357.659 239.6C356.726 241.467 354.659 243.133 351.459 244.6C348.259 246.067 344.726 246.8 340.859 246.8C328.726 246.8 322.659 241.333 322.659 230.4C322.659 225.733 323.859 217.4 326.259 205.4C328.659 193.4 329.859 185.533 329.859 181.8C329.859 176.067 327.126 173.2 321.659 173.2C317.126 173.2 312.726 176.267 308.459 182.4C304.326 188.533 300.926 196.867 298.259 207.4L291.659 245H267.659L289.859 119.4C285.859 119.8 282.526 121.667 279.859 125L276.859 122.6C280.859 117.8 285.859 115.4 291.859 115.4C297.993 115.4 302.726 116.933 306.059 120C309.393 123.067 311.059 127.4 311.059 133C311.059 134.067 310.926 135.8 310.659 138.2L302.259 185.6C307.726 173.333 316.193 167.2 327.659 167.2C335.526 167.2 341.659 169.467 346.059 174C350.459 178.4 352.659 184.533 352.659 192.4C352.659 196.533 351.393 204.533 348.859 216.4C346.326 228.133 344.926 236.933 344.659 242.8Z" fill="black"/>
<path d="M444.52 242.8C447.72 242.8 451.054 240.933 454.52 237.2L457.52 239.6C456.587 241.467 454.52 243.133 451.32 244.6C448.12 246.067 444.587 246.8 440.72 246.8C428.587 246.8 422.52 241.333 422.52 230.4C422.52 225.733 423.72 217.4 426.12 205.4C428.52 193.4 429.72 185.533 429.72 181.8C429.72 176.067 426.987 173.2 421.52 173.2C417.12 173.2 412.854 176.067 408.72 181.8C404.72 187.533 401.387 195.4 398.72 205.4L391.92 242.8C396.054 242.4 399.454 240.533 402.12 237.2L405.12 239.6C401.12 244.4 396.12 246.8 390.12 246.8C384.12 246.8 379.387 245.267 375.92 242.2C372.587 239.133 370.92 235.133 370.92 230.2C370.92 228.333 371.987 221 374.12 208.2L380.72 171.2C376.72 171.6 373.387 173.467 370.72 176.8L367.72 174.4C371.72 169.6 376.72 167.2 382.72 167.2C388.854 167.2 393.587 168.733 396.92 171.8C400.254 174.867 401.92 179.2 401.92 184.8V186C407.387 173.467 415.92 167.2 427.52 167.2C435.387 167.2 441.52 169.467 445.92 174C450.32 178.4 452.52 184.533 452.52 192.4C452.52 196.533 451.254 204.533 448.72 216.4C446.187 228.133 444.787 236.933 444.52 242.8Z" fill="black"/>
<path d="M537.525 246.8C525.792 246.8 519.392 241.667 518.325 231.4C512.458 241.667 505.058 246.8 496.125 246.8C487.192 246.8 480.058 244.133 474.725 238.8C469.525 233.333 466.925 225.733 466.925 216C466.925 200.8 470.658 188.867 478.125 180.2C485.592 171.533 495.258 167.2 507.125 167.2C516.858 167.2 523.325 171.8 526.525 181C527.192 177 527.925 173 528.725 169C538.592 169 545.925 168.6 550.725 167.8L553.325 167.2L539.525 242.8C543.525 242.4 546.858 240.533 549.525 237.2L552.525 239.6C548.525 244.4 543.525 246.8 537.525 246.8ZM489.525 226.2C489.525 232.2 490.258 236.4 491.725 238.8C493.325 241.067 495.725 242.2 498.925 242.2C502.125 242.2 505.392 240.467 508.725 237C513.125 232.467 516.658 226.733 519.325 219.8C519.725 218.067 520.458 213.933 521.525 207.4C522.725 200.733 523.725 195.267 524.525 191C524.125 185.933 522.725 181.533 520.325 177.8C517.925 174.067 514.925 172.2 511.325 172.2C504.792 172.2 499.525 178.067 495.525 189.8C491.525 201.4 489.525 213.533 489.525 226.2Z" fill="black"/>
<path d="M0 118H56.4447V122.593L41.2776 124.316L69.5027 219.631L115.769 127.57L98.8743 122.593V118H139V122.593L124.409 127.761L67.0068 247H55.4875L14.7831 124.316L0 122.593V118Z" fill="black"/>
</svg>
